<mxfile host="app.diagrams.net" agent="Mozilla/5.0 (Windows NT 10.0; Win64; x64; rv:128.0) Gecko/20100101 Firefox/128.0" version="26.0.14">
  <diagram name="Page-1" id="0783ab3e-0a74-02c8-0abd-f7b4e66b4bec">
    <mxGraphModel dx="1434" dy="782" grid="1" gridSize="10" guides="1" tooltips="1" connect="1" arrows="1" fold="1" page="1" pageScale="1" pageWidth="850" pageHeight="1100" background="none" math="0" shadow="0">
      <root>
        <mxCell id="0" />
        <mxCell id="1" parent="0" />
        <mxCell id="coWFAxuRJV1McfmA6n-d-18" style="edgeStyle=orthogonalEdgeStyle;rounded=0;orthogonalLoop=1;jettySize=auto;html=1;exitX=0;exitY=0.3333333333333333;exitDx=0;exitDy=0;exitPerimeter=0;" edge="1" parent="1" source="coWFAxuRJV1McfmA6n-d-1" target="coWFAxuRJV1McfmA6n-d-2">
          <mxGeometry relative="1" as="geometry" />
        </mxCell>
        <mxCell id="coWFAxuRJV1McfmA6n-d-19" style="edgeStyle=orthogonalEdgeStyle;rounded=0;orthogonalLoop=1;jettySize=auto;html=1;exitX=0;exitY=0.3333333333333333;exitDx=0;exitDy=0;exitPerimeter=0;" edge="1" parent="1" source="coWFAxuRJV1McfmA6n-d-1" target="coWFAxuRJV1McfmA6n-d-8">
          <mxGeometry relative="1" as="geometry" />
        </mxCell>
        <mxCell id="coWFAxuRJV1McfmA6n-d-20" style="edgeStyle=orthogonalEdgeStyle;rounded=0;orthogonalLoop=1;jettySize=auto;html=1;exitX=0;exitY=0.3333333333333333;exitDx=0;exitDy=0;exitPerimeter=0;" edge="1" parent="1" source="coWFAxuRJV1McfmA6n-d-1" target="coWFAxuRJV1McfmA6n-d-9">
          <mxGeometry relative="1" as="geometry" />
        </mxCell>
        <mxCell id="coWFAxuRJV1McfmA6n-d-21" style="edgeStyle=orthogonalEdgeStyle;rounded=0;orthogonalLoop=1;jettySize=auto;html=1;exitX=0;exitY=0.3333333333333333;exitDx=0;exitDy=0;exitPerimeter=0;" edge="1" parent="1" source="coWFAxuRJV1McfmA6n-d-1" target="coWFAxuRJV1McfmA6n-d-10">
          <mxGeometry relative="1" as="geometry" />
        </mxCell>
        <mxCell id="coWFAxuRJV1McfmA6n-d-22" style="edgeStyle=orthogonalEdgeStyle;rounded=0;orthogonalLoop=1;jettySize=auto;html=1;exitX=0;exitY=0.3333333333333333;exitDx=0;exitDy=0;exitPerimeter=0;" edge="1" parent="1" source="coWFAxuRJV1McfmA6n-d-1" target="coWFAxuRJV1McfmA6n-d-11">
          <mxGeometry relative="1" as="geometry" />
        </mxCell>
        <mxCell id="coWFAxuRJV1McfmA6n-d-23" style="edgeStyle=orthogonalEdgeStyle;rounded=0;orthogonalLoop=1;jettySize=auto;html=1;exitX=0;exitY=0.3333333333333333;exitDx=0;exitDy=0;exitPerimeter=0;" edge="1" parent="1" source="coWFAxuRJV1McfmA6n-d-1" target="coWFAxuRJV1McfmA6n-d-12">
          <mxGeometry relative="1" as="geometry" />
        </mxCell>
        <mxCell id="coWFAxuRJV1McfmA6n-d-24" style="edgeStyle=orthogonalEdgeStyle;rounded=0;orthogonalLoop=1;jettySize=auto;html=1;exitX=0;exitY=0.3333333333333333;exitDx=0;exitDy=0;exitPerimeter=0;" edge="1" parent="1" source="coWFAxuRJV1McfmA6n-d-1" target="coWFAxuRJV1McfmA6n-d-13">
          <mxGeometry relative="1" as="geometry" />
        </mxCell>
        <mxCell id="coWFAxuRJV1McfmA6n-d-25" style="edgeStyle=orthogonalEdgeStyle;rounded=0;orthogonalLoop=1;jettySize=auto;html=1;exitX=0;exitY=0.3333333333333333;exitDx=0;exitDy=0;exitPerimeter=0;" edge="1" parent="1" source="coWFAxuRJV1McfmA6n-d-1" target="coWFAxuRJV1McfmA6n-d-14">
          <mxGeometry relative="1" as="geometry" />
        </mxCell>
        <mxCell id="coWFAxuRJV1McfmA6n-d-26" style="edgeStyle=orthogonalEdgeStyle;rounded=0;orthogonalLoop=1;jettySize=auto;html=1;exitX=0;exitY=0.3333333333333333;exitDx=0;exitDy=0;exitPerimeter=0;" edge="1" parent="1" source="coWFAxuRJV1McfmA6n-d-1" target="coWFAxuRJV1McfmA6n-d-15">
          <mxGeometry relative="1" as="geometry" />
        </mxCell>
        <mxCell id="coWFAxuRJV1McfmA6n-d-27" style="edgeStyle=orthogonalEdgeStyle;rounded=0;orthogonalLoop=1;jettySize=auto;html=1;exitX=0;exitY=0.3333333333333333;exitDx=0;exitDy=0;exitPerimeter=0;" edge="1" parent="1" source="coWFAxuRJV1McfmA6n-d-1" target="coWFAxuRJV1McfmA6n-d-16">
          <mxGeometry relative="1" as="geometry" />
        </mxCell>
        <mxCell id="coWFAxuRJV1McfmA6n-d-1" value="System" style="shape=umlActor;verticalLabelPosition=bottom;verticalAlign=top;html=1;outlineConnect=0;" vertex="1" parent="1">
          <mxGeometry x="960" y="60" width="30" height="60" as="geometry" />
        </mxCell>
        <mxCell id="coWFAxuRJV1McfmA6n-d-2" value="Store a list of nouns in English and Welsh with the gender." style="ellipse;whiteSpace=wrap;html=1;" vertex="1" parent="1">
          <mxGeometry x="480" y="40" width="120" height="80" as="geometry" />
        </mxCell>
        <mxCell id="coWFAxuRJV1McfmA6n-d-33" style="edgeStyle=orthogonalEdgeStyle;rounded=0;orthogonalLoop=1;jettySize=auto;html=1;exitX=0.5;exitY=0.5;exitDx=0;exitDy=0;exitPerimeter=0;" edge="1" parent="1" source="coWFAxuRJV1McfmA6n-d-3" target="coWFAxuRJV1McfmA6n-d-29">
          <mxGeometry relative="1" as="geometry" />
        </mxCell>
        <mxCell id="coWFAxuRJV1McfmA6n-d-34" style="edgeStyle=orthogonalEdgeStyle;rounded=0;orthogonalLoop=1;jettySize=auto;html=1;exitX=0.5;exitY=0.5;exitDx=0;exitDy=0;exitPerimeter=0;" edge="1" parent="1" source="coWFAxuRJV1McfmA6n-d-3" target="coWFAxuRJV1McfmA6n-d-30">
          <mxGeometry relative="1" as="geometry" />
        </mxCell>
        <mxCell id="coWFAxuRJV1McfmA6n-d-35" style="edgeStyle=orthogonalEdgeStyle;rounded=0;orthogonalLoop=1;jettySize=auto;html=1;exitX=0.5;exitY=0.5;exitDx=0;exitDy=0;exitPerimeter=0;" edge="1" parent="1" source="coWFAxuRJV1McfmA6n-d-3" target="coWFAxuRJV1McfmA6n-d-31">
          <mxGeometry relative="1" as="geometry" />
        </mxCell>
        <mxCell id="coWFAxuRJV1McfmA6n-d-36" style="edgeStyle=orthogonalEdgeStyle;rounded=0;orthogonalLoop=1;jettySize=auto;html=1;exitX=0.5;exitY=0.5;exitDx=0;exitDy=0;exitPerimeter=0;" edge="1" parent="1" source="coWFAxuRJV1McfmA6n-d-3" target="coWFAxuRJV1McfmA6n-d-32">
          <mxGeometry relative="1" as="geometry" />
        </mxCell>
        <mxCell id="coWFAxuRJV1McfmA6n-d-3" value="SysAdmin" style="shape=umlActor;verticalLabelPosition=bottom;verticalAlign=top;html=1;outlineConnect=0;" vertex="1" parent="1">
          <mxGeometry x="80" y="120" width="30" height="60" as="geometry" />
        </mxCell>
        <mxCell id="coWFAxuRJV1McfmA6n-d-41" style="edgeStyle=orthogonalEdgeStyle;rounded=0;orthogonalLoop=1;jettySize=auto;html=1;exitX=0.5;exitY=0.5;exitDx=0;exitDy=0;exitPerimeter=0;" edge="1" parent="1" source="coWFAxuRJV1McfmA6n-d-4" target="coWFAxuRJV1McfmA6n-d-37">
          <mxGeometry relative="1" as="geometry" />
        </mxCell>
        <mxCell id="coWFAxuRJV1McfmA6n-d-42" style="edgeStyle=orthogonalEdgeStyle;rounded=0;orthogonalLoop=1;jettySize=auto;html=1;exitX=0.5;exitY=0.5;exitDx=0;exitDy=0;exitPerimeter=0;" edge="1" parent="1" source="coWFAxuRJV1McfmA6n-d-4" target="coWFAxuRJV1McfmA6n-d-38">
          <mxGeometry relative="1" as="geometry" />
        </mxCell>
        <mxCell id="coWFAxuRJV1McfmA6n-d-43" style="edgeStyle=orthogonalEdgeStyle;rounded=0;orthogonalLoop=1;jettySize=auto;html=1;exitX=0.5;exitY=0.5;exitDx=0;exitDy=0;exitPerimeter=0;" edge="1" parent="1" source="coWFAxuRJV1McfmA6n-d-4" target="coWFAxuRJV1McfmA6n-d-39">
          <mxGeometry relative="1" as="geometry" />
        </mxCell>
        <mxCell id="coWFAxuRJV1McfmA6n-d-4" value="Instructor" style="shape=umlActor;verticalLabelPosition=bottom;verticalAlign=top;html=1;outlineConnect=0;" vertex="1" parent="1">
          <mxGeometry x="90" y="570" width="30" height="60" as="geometry" />
        </mxCell>
        <mxCell id="coWFAxuRJV1McfmA6n-d-47" style="edgeStyle=orthogonalEdgeStyle;rounded=0;orthogonalLoop=1;jettySize=auto;html=1;exitX=0.5;exitY=0.5;exitDx=0;exitDy=0;exitPerimeter=0;" edge="1" parent="1" source="coWFAxuRJV1McfmA6n-d-5" target="coWFAxuRJV1McfmA6n-d-40">
          <mxGeometry relative="1" as="geometry" />
        </mxCell>
        <mxCell id="coWFAxuRJV1McfmA6n-d-48" style="edgeStyle=orthogonalEdgeStyle;rounded=0;orthogonalLoop=1;jettySize=auto;html=1;exitX=0.5;exitY=0.5;exitDx=0;exitDy=0;exitPerimeter=0;" edge="1" parent="1" source="coWFAxuRJV1McfmA6n-d-5" target="coWFAxuRJV1McfmA6n-d-44">
          <mxGeometry relative="1" as="geometry" />
        </mxCell>
        <mxCell id="coWFAxuRJV1McfmA6n-d-49" style="edgeStyle=orthogonalEdgeStyle;rounded=0;orthogonalLoop=1;jettySize=auto;html=1;exitX=0.5;exitY=0.5;exitDx=0;exitDy=0;exitPerimeter=0;" edge="1" parent="1" source="coWFAxuRJV1McfmA6n-d-5" target="coWFAxuRJV1McfmA6n-d-45">
          <mxGeometry relative="1" as="geometry" />
        </mxCell>
        <mxCell id="coWFAxuRJV1McfmA6n-d-50" style="edgeStyle=orthogonalEdgeStyle;rounded=0;orthogonalLoop=1;jettySize=auto;html=1;exitX=0.5;exitY=0.5;exitDx=0;exitDy=0;exitPerimeter=0;" edge="1" parent="1" source="coWFAxuRJV1McfmA6n-d-5" target="coWFAxuRJV1McfmA6n-d-46">
          <mxGeometry relative="1" as="geometry" />
        </mxCell>
        <mxCell id="coWFAxuRJV1McfmA6n-d-5" value="Student" style="shape=umlActor;verticalLabelPosition=bottom;verticalAlign=top;html=1;outlineConnect=0;" vertex="1" parent="1">
          <mxGeometry x="90" y="820" width="30" height="60" as="geometry" />
        </mxCell>
        <UserObject label="&lt;span style=&quot;left: 14.59%; top: 43.76%; font-size: calc(var(--scale-factor)*10.91px); font-family: sans-serif; transform: scaleX(0.930162);&quot; role=&quot;presentation&quot; dir=&quot;ltr&quot;&gt;1. As a system, I must store a list of nouns in both English and Welsh along with the gender.&lt;/span&gt;&lt;br role=&quot;presentation&quot;&gt;&lt;span style=&quot;left: 14.23%; top: 45.37%; font-size: calc(var(--scale-factor)*10.91px); font-family: sans-serif; transform: scaleX(0.940512);&quot; role=&quot;presentation&quot; dir=&quot;ltr&quot;&gt;2. As a system, I must be available through a web browser.&lt;/span&gt;&lt;br role=&quot;presentation&quot;&gt;&lt;span style=&quot;left: 14.2%; top: 46.98%; font-size: calc(var(--scale-factor)*10.91px); font-family: sans-serif; transform: scaleX(1.01335);&quot; role=&quot;presentation&quot; dir=&quot;ltr&quot;&gt;3. As a system,&lt;/span&gt;&lt;span style=&quot;left: 27.39%; top: 46.98%; font-size: calc(var(--scale-factor)*10.91px); font-family: sans-serif;&quot; role=&quot;presentation&quot; dir=&quot;ltr&quot;&gt; &lt;/span&gt;&lt;span style=&quot;left: 28.63%; top: 46.98%; font-size: calc(var(--scale-factor)*10.91px); font-family: sans-serif; transform: scaleX(1.09788);&quot; role=&quot;presentation&quot; dir=&quot;ltr&quot;&gt;I should have three types of user - students,&lt;/span&gt;&lt;span style=&quot;left: 67.52%; top: 46.98%; font-size: calc(var(--scale-factor)*10.91px); font-family: sans-serif;&quot; role=&quot;presentation&quot; dir=&quot;ltr&quot;&gt; &lt;/span&gt;&lt;span style=&quot;left: 68.76%; top: 46.98%; font-size: calc(var(--scale-factor)*10.91px); font-family: sans-serif; transform: scaleX(0.935497);&quot; role=&quot;presentation&quot; dir=&quot;ltr&quot;&gt;instructors,&lt;/span&gt;&lt;span style=&quot;left: 77.27%; top: 46.98%; font-size: calc(var(--scale-factor)*10.91px); font-family: sans-serif;&quot; role=&quot;presentation&quot; dir=&quot;ltr&quot;&gt; &lt;/span&gt;&lt;span style=&quot;left: 78.51%; top: 46.98%; font-size: calc(var(--scale-factor)*10.91px); font-family: sans-serif; transform: scaleX(1.00723);&quot; role=&quot;presentation&quot; dir=&quot;ltr&quot;&gt;and system&lt;/span&gt;&lt;br role=&quot;presentation&quot;&gt;&lt;span style=&quot;left: 16.49%; top: 48.59%; font-size: calc(var(--scale-factor)*10.91px); font-family: sans-serif; transform: scaleX(0.950766);&quot; role=&quot;presentation&quot; dir=&quot;ltr&quot;&gt;administrators.&lt;/span&gt;&lt;br role=&quot;presentation&quot;&gt;&lt;span style=&quot;left: 14.16%; top: 50.2%; font-size: calc(var(--scale-factor)*10.91px); font-family: sans-serif; transform: scaleX(0.941524);&quot; role=&quot;presentation&quot; dir=&quot;ltr&quot;&gt;4. As a system, I must support three types of question:&lt;/span&gt;&lt;br role=&quot;presentation&quot;&gt;&lt;span style=&quot;left: 19.04%; top: 51.86%; font-size: calc(var(--scale-factor)*10.91px); font-family: monospace;&quot; role=&quot;presentation&quot; dir=&quot;ltr&quot;&gt;•&lt;/span&gt;&lt;span style=&quot;left: 19.6%; top: 51.86%; font-size: calc(var(--scale-factor)*10.91px); font-family: monospace;&quot; role=&quot;presentation&quot; dir=&quot;ltr&quot;&gt; &lt;/span&gt;&lt;span style=&quot;left: 20.52%; top: 51.81%; font-size: calc(var(--scale-factor)*10.91px); font-family: sans-serif; transform: scaleX(0.938625);&quot; role=&quot;presentation&quot; dir=&quot;ltr&quot;&gt;What is the gender of a Welsh Noun?&lt;/span&gt;&lt;br role=&quot;presentation&quot;&gt;&lt;span style=&quot;left: 20.52%; top: 53.42%; font-size: calc(var(--scale-factor)*10.91px); font-family: sans-serif; transform: scaleX(0.872895);&quot; role=&quot;presentation&quot; dir=&quot;ltr&quot;&gt;e.g. What is the gender of the Welsh noun tatws?&lt;/span&gt;&lt;br role=&quot;presentation&quot;&gt;&lt;span style=&quot;left: 19.04%; top: 55.08%; font-size: calc(var(--scale-factor)*10.91px); font-family: monospace;&quot; role=&quot;presentation&quot; dir=&quot;ltr&quot;&gt;•&lt;/span&gt;&lt;span style=&quot;left: 19.6%; top: 55.08%; font-size: calc(var(--scale-factor)*10.91px); font-family: monospace;&quot; role=&quot;presentation&quot; dir=&quot;ltr&quot;&gt; &lt;/span&gt;&lt;span style=&quot;left: 20.52%; top: 55.03%; font-size: calc(var(--scale-factor)*10.91px); font-family: sans-serif; transform: scaleX(0.94024);&quot; role=&quot;presentation&quot; dir=&quot;ltr&quot;&gt;What is the meaning of a Welsh Noun?&lt;/span&gt;&lt;br role=&quot;presentation&quot;&gt;&lt;span style=&quot;left: 20.52%; top: 56.64%; font-size: calc(var(--scale-factor)*10.91px); font-family: sans-serif; transform: scaleX(0.878105);&quot; role=&quot;presentation&quot; dir=&quot;ltr&quot;&gt;e.g. What is the meaning of the Welsh noun tatws?&lt;/span&gt;&lt;br role=&quot;presentation&quot;&gt;&lt;span style=&quot;left: 19.04%; top: 58.3%; font-size: calc(var(--scale-factor)*10.91px); font-family: monospace;&quot; role=&quot;presentation&quot; dir=&quot;ltr&quot;&gt;•&lt;/span&gt;&lt;span style=&quot;left: 19.6%; top: 58.3%; font-size: calc(var(--scale-factor)*10.91px); font-family: monospace;&quot; role=&quot;presentation&quot; dir=&quot;ltr&quot;&gt; &lt;/span&gt;&lt;span style=&quot;left: 20.52%; top: 58.25%; font-size: calc(var(--scale-factor)*10.91px); font-family: sans-serif; transform: scaleX(0.9378);&quot; role=&quot;presentation&quot; dir=&quot;ltr&quot;&gt;What is the Welsh noun for an English noun?&lt;/span&gt;&lt;br role=&quot;presentation&quot;&gt;&lt;span style=&quot;left: 20.52%; top: 59.85%; font-size: calc(var(--scale-factor)*10.91px); font-family: sans-serif; transform: scaleX(0.883993);&quot; role=&quot;presentation&quot; dir=&quot;ltr&quot;&gt;e.g. What is the Welsh noun for the English word for potato?&lt;/span&gt;&lt;br role=&quot;presentation&quot;&gt;&lt;span style=&quot;left: 14.2%; top: 61.46%; font-size: calc(var(--scale-factor)*10.91px); font-family: sans-serif; transform: scaleX(1.00357);&quot; role=&quot;presentation&quot; dir=&quot;ltr&quot;&gt;5. As a system, I must generate tests on-demand with a mix of random question types and&lt;/span&gt;&lt;br role=&quot;presentation&quot;&gt;&lt;span style=&quot;left: 16.49%; top: 63.07%; font-size: calc(var(--scale-factor)*10.91px); font-family: sans-serif; transform: scaleX(0.953973);&quot; role=&quot;presentation&quot; dir=&quot;ltr&quot;&gt;random nouns used.&lt;/span&gt;&lt;br role=&quot;presentation&quot;&gt;&lt;span style=&quot;left: 14.15%; top: 64.68%; font-size: calc(var(--scale-factor)*10.91px); font-family: sans-serif; transform: scaleX(0.933229);&quot; role=&quot;presentation&quot; dir=&quot;ltr&quot;&gt;6. As a system, I should create 20 questions for each test.&lt;/span&gt;&lt;br role=&quot;presentation&quot;&gt;&lt;span style=&quot;left: 14.34%; top: 66.29%; font-size: calc(var(--scale-factor)*10.91px); font-family: sans-serif; transform: scaleX(0.957946);&quot; role=&quot;presentation&quot; dir=&quot;ltr&quot;&gt;7. As a system, I must permanently store the results of any tests taken, including where nouns&lt;/span&gt;&lt;br role=&quot;presentation&quot;&gt;&lt;span style=&quot;left: 16.49%; top: 67.9%; font-size: calc(var(--scale-factor)*10.91px); font-family: sans-serif; transform: scaleX(0.96108);&quot; role=&quot;presentation&quot; dir=&quot;ltr&quot;&gt;and/or users have been removed.&lt;/span&gt;&lt;br role=&quot;presentation&quot;&gt;&lt;span style=&quot;left: 14.08%; top: 69.51%; font-size: calc(var(--scale-factor)*10.91px); font-family: sans-serif; transform: scaleX(0.93658);&quot; role=&quot;presentation&quot; dir=&quot;ltr&quot;&gt;8. As a system, I must have a welcome page linking to the rest of the system.&lt;/span&gt;&lt;br role=&quot;presentation&quot;&gt;&lt;span style=&quot;left: 14.19%; top: 71.12%; font-size: calc(var(--scale-factor)*10.91px); font-family: sans-serif; transform: scaleX(0.998003);&quot; role=&quot;presentation&quot; dir=&quot;ltr&quot;&gt;9. As a system, I must have a security system to ensure only authorised users can perform&lt;/span&gt;&lt;br role=&quot;presentation&quot;&gt;&lt;span style=&quot;left: 16.49%; top: 72.73%; font-size: calc(var(--scale-factor)*10.91px); font-family: sans-serif; transform: scaleX(0.933626);&quot; role=&quot;presentation&quot; dir=&quot;ltr&quot;&gt;designated actions.&lt;/span&gt;&lt;br role=&quot;presentation&quot;&gt;&lt;span style=&quot;left: 13.35%; top: 74.34%; font-size: calc(var(--scale-factor)*10.91px); font-family: sans-serif; transform: scaleX(0.969084);&quot; role=&quot;presentation&quot; dir=&quot;ltr&quot;&gt;10. As a system, I must minimise the opportunity for cheating by taking multiple tests to gather&lt;/span&gt;&lt;br role=&quot;presentation&quot;&gt;&lt;span style=&quot;left: 16.49%; top: 75.95%; font-size: calc(var(--scale-factor)*10.91px); font-family: sans-serif; transform: scaleX(0.912085);&quot; role=&quot;presentation&quot; dir=&quot;ltr&quot;&gt;answers.&lt;/span&gt;&lt;br role=&quot;presentation&quot;&gt;&lt;span style=&quot;left: 13.99%; top: 78.57%; font-size: calc(var(--scale-factor)*10.91px); font-family: sans-serif; transform: scaleX(0.924764);&quot; role=&quot;presentation&quot; dir=&quot;ltr&quot;&gt;11. As a System Administrator, I must be able to register a new user.&lt;/span&gt;&lt;br role=&quot;presentation&quot;&gt;&lt;span style=&quot;left: 13.63%; top: 80.18%; font-size: calc(var(--scale-factor)*10.91px); font-family: sans-serif; transform: scaleX(0.932998);&quot; role=&quot;presentation&quot; dir=&quot;ltr&quot;&gt;12. As a System Administrator, I should be able to set the type of any user.&lt;/span&gt;&lt;br role=&quot;presentation&quot;&gt;&lt;span style=&quot;left: 13.6%; top: 81.79%; font-size: calc(var(--scale-factor)*10.91px); font-family: sans-serif; transform: scaleX(0.928644);&quot; role=&quot;presentation&quot; dir=&quot;ltr&quot;&gt;13. As a System Administrator, I should be able to delete users.&lt;/span&gt;&lt;br role=&quot;presentation&quot;&gt;&lt;span style=&quot;left: 13.56%; top: 83.4%; font-size: calc(var(--scale-factor)*10.91px); font-family: sans-serif; transform: scaleX(0.920829);&quot; role=&quot;presentation&quot; dir=&quot;ltr&quot;&gt;14. As a System Administrator, I should be able to reset users’ passwords.&lt;/span&gt;&lt;br role=&quot;presentation&quot;&gt;&lt;span style=&quot;left: 13.6%; top: 86.02%; font-size: calc(var(--scale-factor)*10.91px); font-family: sans-serif; transform: scaleX(0.934743);&quot; role=&quot;presentation&quot; dir=&quot;ltr&quot;&gt;15. As an Instructor, I must be able to create new nouns in the system.&lt;/span&gt;&lt;br role=&quot;presentation&quot;&gt;&lt;span style=&quot;left: 13.55%; top: 87.62%; font-size: calc(var(--scale-factor)*10.91px); font-family: sans-serif; transform: scaleX(0.936054);&quot; role=&quot;presentation&quot; dir=&quot;ltr&quot;&gt;16. As an Instructor, I must be able to edit nouns in the system.&lt;/span&gt;&lt;br role=&quot;presentation&quot;&gt;&lt;span style=&quot;left: 13.74%; top: 89.23%; font-size: calc(var(--scale-factor)*10.91px); font-family: sans-serif; transform: scaleX(0.934531);&quot; role=&quot;presentation&quot; dir=&quot;ltr&quot;&gt;17. As an Instructor, I should be able to delete nouns in the system.&lt;/span&gt;&lt;br role=&quot;presentation&quot;&gt;&lt;span style=&quot;left: 13.48%; top: 91.85%; font-size: calc(var(--scale-factor)*10.91px); font-family: sans-serif; transform: scaleX(0.919481);&quot; role=&quot;presentation&quot; dir=&quot;ltr&quot;&gt;18. As a Student, I must be able to take a test.&lt;/span&gt;&lt;br role=&quot;presentation&quot;&gt;&lt;span style=&quot;left: 13.59%; top: 10.27%; font-size: calc(var(--scale-factor)*10.91px); font-family: sans-serif; transform: scaleX(0.938566);&quot; role=&quot;presentation&quot; dir=&quot;ltr&quot;&gt;19. As a Student, I must not be able to edit my answers once submitted.&lt;/span&gt;&lt;br role=&quot;presentation&quot;&gt;&lt;span style=&quot;left: 12.98%; top: 11.88%; font-size: calc(var(--scale-factor)*10.91px); font-family: sans-serif; transform: scaleX(0.939767);&quot; role=&quot;presentation&quot; dir=&quot;ltr&quot;&gt;20. As a Student, I must be shown my results for a test.&lt;/span&gt;&lt;br role=&quot;presentation&quot;&gt;&lt;span style=&quot;left: 13.63%; top: 13.49%; font-size: calc(var(--scale-factor)*10.91px); font-family: sans-serif; transform: scaleX(0.932424);&quot; role=&quot;presentation&quot; dir=&quot;ltr&quot;&gt;21. As a Student, I should be able to view all of my test results.&lt;/span&gt;" link="&lt;span style=&quot;left: 14.59%; top: 43.76%; font-size: calc(var(--scale-factor)*10.91px); font-family: sans-serif; transform: scaleX(0.930162);&quot; role=&quot;presentation&quot; dir=&quot;ltr&quot;&gt;1. As a system, I must store a list of nouns in both English and Welsh along with the gender.&lt;/span&gt;&lt;br role=&quot;presentation&quot;&gt;&lt;span style=&quot;left: 14.23%; top: 45.37%; font-size: calc(var(--scale-factor)*10.91px); font-family: sans-serif; transform: scaleX(0.940512);&quot; role=&quot;presentation&quot; dir=&quot;ltr&quot;&gt;2. As a system, I must be available through a web browser.&lt;/span&gt;&lt;br role=&quot;presentation&quot;&gt;&lt;span style=&quot;left: 14.2%; top: 46.98%; font-size: calc(var(--scale-factor)*10.91px); font-family: sans-serif; transform: scaleX(1.01335);&quot; role=&quot;presentation&quot; dir=&quot;ltr&quot;&gt;3. As a system,&lt;/span&gt;&lt;span style=&quot;left: 27.39%; top: 46.98%; font-size: calc(var(--scale-factor)*10.91px); font-family: sans-serif;&quot; role=&quot;presentation&quot; dir=&quot;ltr&quot;&gt; &lt;/span&gt;&lt;span style=&quot;left: 28.63%; top: 46.98%; font-size: calc(var(--scale-factor)*10.91px); font-family: sans-serif; transform: scaleX(1.09788);&quot; role=&quot;presentation&quot; dir=&quot;ltr&quot;&gt;I should have three types of user - students,&lt;/span&gt;&lt;span style=&quot;left: 67.52%; top: 46.98%; font-size: calc(var(--scale-factor)*10.91px); font-family: sans-serif;&quot; role=&quot;presentation&quot; dir=&quot;ltr&quot;&gt; &lt;/span&gt;&lt;span style=&quot;left: 68.76%; top: 46.98%; font-size: calc(var(--scale-factor)*10.91px); font-family: sans-serif; transform: scaleX(0.935497);&quot; role=&quot;presentation&quot; dir=&quot;ltr&quot;&gt;instructors,&lt;/span&gt;&lt;span style=&quot;left: 77.27%; top: 46.98%; font-size: calc(var(--scale-factor)*10.91px); font-family: sans-serif;&quot; role=&quot;presentation&quot; dir=&quot;ltr&quot;&gt; &lt;/span&gt;&lt;span style=&quot;left: 78.51%; top: 46.98%; font-size: calc(var(--scale-factor)*10.91px); font-family: sans-serif; transform: scaleX(1.00723);&quot; role=&quot;presentation&quot; dir=&quot;ltr&quot;&gt;and system&lt;/span&gt;&lt;br role=&quot;presentation&quot;&gt;&lt;span style=&quot;left: 16.49%; top: 48.59%; font-size: calc(var(--scale-factor)*10.91px); font-family: sans-serif; transform: scaleX(0.950766);&quot; role=&quot;presentation&quot; dir=&quot;ltr&quot;&gt;administrators.&lt;/span&gt;&lt;br role=&quot;presentation&quot;&gt;&lt;span style=&quot;left: 14.16%; top: 50.2%; font-size: calc(var(--scale-factor)*10.91px); font-family: sans-serif; transform: scaleX(0.941524);&quot; role=&quot;presentation&quot; dir=&quot;ltr&quot;&gt;4. As a system, I must support three types of question:&lt;/span&gt;&lt;br role=&quot;presentation&quot;&gt;&lt;span style=&quot;left: 19.04%; top: 51.86%; font-size: calc(var(--scale-factor)*10.91px); font-family: monospace;&quot; role=&quot;presentation&quot; dir=&quot;ltr&quot;&gt;•&lt;/span&gt;&lt;span style=&quot;left: 19.6%; top: 51.86%; font-size: calc(var(--scale-factor)*10.91px); font-family: monospace;&quot; role=&quot;presentation&quot; dir=&quot;ltr&quot;&gt; &lt;/span&gt;&lt;span style=&quot;left: 20.52%; top: 51.81%; font-size: calc(var(--scale-factor)*10.91px); font-family: sans-serif; transform: scaleX(0.938625);&quot; role=&quot;presentation&quot; dir=&quot;ltr&quot;&gt;What is the gender of a Welsh Noun?&lt;/span&gt;&lt;br role=&quot;presentation&quot;&gt;&lt;span style=&quot;left: 20.52%; top: 53.42%; font-size: calc(var(--scale-factor)*10.91px); font-family: sans-serif; transform: scaleX(0.872895);&quot; role=&quot;presentation&quot; dir=&quot;ltr&quot;&gt;e.g. What is the gender of the Welsh noun tatws?&lt;/span&gt;&lt;br role=&quot;presentation&quot;&gt;&lt;span style=&quot;left: 19.04%; top: 55.08%; font-size: calc(var(--scale-factor)*10.91px); font-family: monospace;&quot; role=&quot;presentation&quot; dir=&quot;ltr&quot;&gt;•&lt;/span&gt;&lt;span style=&quot;left: 19.6%; top: 55.08%; font-size: calc(var(--scale-factor)*10.91px); font-family: monospace;&quot; role=&quot;presentation&quot; dir=&quot;ltr&quot;&gt; &lt;/span&gt;&lt;span style=&quot;left: 20.52%; top: 55.03%; font-size: calc(var(--scale-factor)*10.91px); font-family: sans-serif; transform: scaleX(0.94024);&quot; role=&quot;presentation&quot; dir=&quot;ltr&quot;&gt;What is the meaning of a Welsh Noun?&lt;/span&gt;&lt;br role=&quot;presentation&quot;&gt;&lt;span style=&quot;left: 20.52%; top: 56.64%; font-size: calc(var(--scale-factor)*10.91px); font-family: sans-serif; transform: scaleX(0.878105);&quot; role=&quot;presentation&quot; dir=&quot;ltr&quot;&gt;e.g. What is the meaning of the Welsh noun tatws?&lt;/span&gt;&lt;br role=&quot;presentation&quot;&gt;&lt;span style=&quot;left: 19.04%; top: 58.3%; font-size: calc(var(--scale-factor)*10.91px); font-family: monospace;&quot; role=&quot;presentation&quot; dir=&quot;ltr&quot;&gt;•&lt;/span&gt;&lt;span style=&quot;left: 19.6%; top: 58.3%; font-size: calc(var(--scale-factor)*10.91px); font-family: monospace;&quot; role=&quot;presentation&quot; dir=&quot;ltr&quot;&gt; &lt;/span&gt;&lt;span style=&quot;left: 20.52%; top: 58.25%; font-size: calc(var(--scale-factor)*10.91px); font-family: sans-serif; transform: scaleX(0.9378);&quot; role=&quot;presentation&quot; dir=&quot;ltr&quot;&gt;What is the Welsh noun for an English noun?&lt;/span&gt;&lt;br role=&quot;presentation&quot;&gt;&lt;span style=&quot;left: 20.52%; top: 59.85%; font-size: calc(var(--scale-factor)*10.91px); font-family: sans-serif; transform: scaleX(0.883993);&quot; role=&quot;presentation&quot; dir=&quot;ltr&quot;&gt;e.g. What is the Welsh noun for the English word for potato?&lt;/span&gt;&lt;br role=&quot;presentation&quot;&gt;&lt;span style=&quot;left: 14.2%; top: 61.46%; font-size: calc(var(--scale-factor)*10.91px); font-family: sans-serif; transform: scaleX(1.00357);&quot; role=&quot;presentation&quot; dir=&quot;ltr&quot;&gt;5. As a system, I must generate tests on-demand with a mix of random question types and&lt;/span&gt;&lt;br role=&quot;presentation&quot;&gt;&lt;span style=&quot;left: 16.49%; top: 63.07%; font-size: calc(var(--scale-factor)*10.91px); font-family: sans-serif; transform: scaleX(0.953973);&quot; role=&quot;presentation&quot; dir=&quot;ltr&quot;&gt;random nouns used.&lt;/span&gt;&lt;br role=&quot;presentation&quot;&gt;&lt;span style=&quot;left: 14.15%; top: 64.68%; font-size: calc(var(--scale-factor)*10.91px); font-family: sans-serif; transform: scaleX(0.933229);&quot; role=&quot;presentation&quot; dir=&quot;ltr&quot;&gt;6. As a system, I should create 20 questions for each test.&lt;/span&gt;&lt;br role=&quot;presentation&quot;&gt;&lt;span style=&quot;left: 14.34%; top: 66.29%; font-size: calc(var(--scale-factor)*10.91px); font-family: sans-serif; transform: scaleX(0.957946);&quot; role=&quot;presentation&quot; dir=&quot;ltr&quot;&gt;7. As a system, I must permanently store the results of any tests taken, including where nouns&lt;/span&gt;&lt;br role=&quot;presentation&quot;&gt;&lt;span style=&quot;left: 16.49%; top: 67.9%; font-size: calc(var(--scale-factor)*10.91px); font-family: sans-serif; transform: scaleX(0.96108);&quot; role=&quot;presentation&quot; dir=&quot;ltr&quot;&gt;and/or users have been removed.&lt;/span&gt;&lt;br role=&quot;presentation&quot;&gt;&lt;span style=&quot;left: 14.08%; top: 69.51%; font-size: calc(var(--scale-factor)*10.91px); font-family: sans-serif; transform: scaleX(0.93658);&quot; role=&quot;presentation&quot; dir=&quot;ltr&quot;&gt;8. As a system, I must have a welcome page linking to the rest of the system.&lt;/span&gt;&lt;br role=&quot;presentation&quot;&gt;&lt;span style=&quot;left: 14.19%; top: 71.12%; font-size: calc(var(--scale-factor)*10.91px); font-family: sans-serif; transform: scaleX(0.998003);&quot; role=&quot;presentation&quot; dir=&quot;ltr&quot;&gt;9. As a system, I must have a security system to ensure only authorised users can perform&lt;/span&gt;&lt;br role=&quot;presentation&quot;&gt;&lt;span style=&quot;left: 16.49%; top: 72.73%; font-size: calc(var(--scale-factor)*10.91px); font-family: sans-serif; transform: scaleX(0.933626);&quot; role=&quot;presentation&quot; dir=&quot;ltr&quot;&gt;designated actions.&lt;/span&gt;&lt;br role=&quot;presentation&quot;&gt;&lt;span style=&quot;left: 13.35%; top: 74.34%; font-size: calc(var(--scale-factor)*10.91px); font-family: sans-serif; transform: scaleX(0.969084);&quot; role=&quot;presentation&quot; dir=&quot;ltr&quot;&gt;10. As a system, I must minimise the opportunity for cheating by taking multiple tests to gather&lt;/span&gt;&lt;br role=&quot;presentation&quot;&gt;&lt;span style=&quot;left: 16.49%; top: 75.95%; font-size: calc(var(--scale-factor)*10.91px); font-family: sans-serif; transform: scaleX(0.912085);&quot; role=&quot;presentation&quot; dir=&quot;ltr&quot;&gt;answers.&lt;/span&gt;&lt;br role=&quot;presentation&quot;&gt;&lt;span style=&quot;left: 13.99%; top: 78.57%; font-size: calc(var(--scale-factor)*10.91px); font-family: sans-serif; transform: scaleX(0.924764);&quot; role=&quot;presentation&quot; dir=&quot;ltr&quot;&gt;11. As a System Administrator, I must be able to register a new user.&lt;/span&gt;&lt;br role=&quot;presentation&quot;&gt;&lt;span style=&quot;left: 13.63%; top: 80.18%; font-size: calc(var(--scale-factor)*10.91px); font-family: sans-serif; transform: scaleX(0.932998);&quot; role=&quot;presentation&quot; dir=&quot;ltr&quot;&gt;12. As a System Administrator, I should be able to set the type of any user.&lt;/span&gt;&lt;br role=&quot;presentation&quot;&gt;&lt;span style=&quot;left: 13.6%; top: 81.79%; font-size: calc(var(--scale-factor)*10.91px); font-family: sans-serif; transform: scaleX(0.928644);&quot; role=&quot;presentation&quot; dir=&quot;ltr&quot;&gt;13. As a System Administrator, I should be able to delete users.&lt;/span&gt;&lt;br role=&quot;presentation&quot;&gt;&lt;span style=&quot;left: 13.56%; top: 83.4%; font-size: calc(var(--scale-factor)*10.91px); font-family: sans-serif; transform: scaleX(0.920829);&quot; role=&quot;presentation&quot; dir=&quot;ltr&quot;&gt;14. As a System Administrator, I should be able to reset users’ passwords.&lt;/span&gt;&lt;br role=&quot;presentation&quot;&gt;&lt;span style=&quot;left: 13.6%; top: 86.02%; font-size: calc(var(--scale-factor)*10.91px); font-family: sans-serif; transform: scaleX(0.934743);&quot; role=&quot;presentation&quot; dir=&quot;ltr&quot;&gt;15. As an Instructor, I must be able to create new nouns in the system.&lt;/span&gt;&lt;br role=&quot;presentation&quot;&gt;&lt;span style=&quot;left: 13.55%; top: 87.62%; font-size: calc(var(--scale-factor)*10.91px); font-family: sans-serif; transform: scaleX(0.936054);&quot; role=&quot;presentation&quot; dir=&quot;ltr&quot;&gt;16. As an Instructor, I must be able to edit nouns in the system.&lt;/span&gt;&lt;br role=&quot;presentation&quot;&gt;&lt;span style=&quot;left: 13.74%; top: 89.23%; font-size: calc(var(--scale-factor)*10.91px); font-family: sans-serif; transform: scaleX(0.934531);&quot; role=&quot;presentation&quot; dir=&quot;ltr&quot;&gt;17. As an Instructor, I should be able to delete nouns in the system.&lt;/span&gt;&lt;br role=&quot;presentation&quot;&gt;&lt;span style=&quot;left: 13.48%; top: 91.85%; font-size: calc(var(--scale-factor)*10.91px); font-family: sans-serif; transform: scaleX(0.919481);&quot; role=&quot;presentation&quot; dir=&quot;ltr&quot;&gt;18. As a Student, I must be able to take a test.&lt;/span&gt;&lt;br role=&quot;presentation&quot;&gt;&lt;span style=&quot;left: 11.9%; top: 95.68%; font-size: calc(var(--scale-factor)*10.91px); font-family: sans-serif; transform: scaleX(0.942055);&quot; role=&quot;presentation&quot; dir=&quot;ltr&quot;&gt;Group Project&lt;/span&gt;&lt;span style=&quot;left: 22.46%; top: 95.68%; font-size: calc(var(--scale-factor)*10.91px); font-family: sans-serif;&quot; role=&quot;presentation&quot; dir=&quot;ltr&quot;&gt; &lt;/span&gt;&lt;span style=&quot;left: 87.13%; top: 95.68%; font-size: calc(var(--scale-factor)*10.91px); font-family: sans-serif;&quot; role=&quot;presentation&quot; dir=&quot;ltr&quot;&gt;2&lt;/span&gt;&lt;div data-pdf-page-number=&quot;2&quot; data-testid=&quot;page_2&quot; class=&quot;page&quot;&gt;&lt;div class=&quot;react-pdf__Page&quot; data-page-number=&quot;2&quot; style=&quot;--scale-factor: 1.2; background-color: white; position: relative; min-width: min-content; min-height: min-content;&quot;&gt;&lt;div class=&quot;react-pdf__Page__annotations annotationLayer&quot; style=&quot;width: round(var(--scale-factor) * 595.276px, 1px); height: round(var(--scale-factor) * 841.89px, 1px);&quot; data-main-rotation=&quot;0&quot;&gt;&lt;section data-annotation-id=&quot;16R&quot; tabindex=&quot;1000&quot; style=&quot;z-index: 0; left: 37.6227%; top: 30.2157%; width: 25.6248%; height: 1.52336%;&quot; class=&quot;linkAnnotation&quot;&gt;&lt;a data-element-id=&quot;16R&quot; href=&quot;https://spring.io/tools&quot; rel=&quot;noopener noreferrer nofollow&quot; target=&quot;_blank&quot; id=&quot;pdfjs_internal_id_16R&quot;&gt;&lt;/a&gt;&lt;/section&gt;&lt;/div&gt;&lt;/div&gt;&lt;/div&gt;&lt;div data-pdf-page-number=&quot;3&quot; data-testid=&quot;page_3&quot; class=&quot;page&quot;&gt;&lt;div class=&quot;react-pdf__Page&quot; data-page-number=&quot;3&quot; style=&quot;--scale-factor: 1.2; background-color: white; position: relative; min-width: min-content; min-height: min-content;&quot;&gt;&lt;/div&gt;&lt;/div&gt;&lt;span style=&quot;left: 11.9%; top: 5.53%; font-size: calc(var(--scale-factor)*10.91px); font-family: sans-serif; transform: scaleX(0.931104);&quot; role=&quot;presentation&quot; dir=&quot;ltr&quot;&gt;ICL-3102: Business &amp;amp; Enterprise Programming&lt;/span&gt;&lt;br role=&quot;presentation&quot;&gt;&lt;span style=&quot;left: 13.59%; top: 10.27%; font-size: calc(var(--scale-factor)*10.91px); font-family: sans-serif; transform: scaleX(0.938566);&quot; role=&quot;presentation&quot; dir=&quot;ltr&quot;&gt;19. As a Student, I must not be able to edit my answers once submitted.&lt;/span&gt;&lt;br role=&quot;presentation&quot;&gt;&lt;span style=&quot;left: 12.98%; top: 11.88%; font-size: calc(var(--scale-factor)*10.91px); font-family: sans-serif; transform: scaleX(0.939767);&quot; role=&quot;presentation&quot; dir=&quot;ltr&quot;&gt;20. As a Student, I must be shown my results for a test.&lt;/span&gt;&lt;br role=&quot;presentation&quot;&gt;&lt;span style=&quot;left: 13.63%; top: 13.49%; font-size: calc(var(--scale-factor)*10.91px); font-family: sans-serif; transform: scaleX(0.932424);&quot; role=&quot;presentation&quot; dir=&quot;ltr&quot;&gt;21. As a Student, I should be able to view all of my test res&lt;/span&gt;" id="coWFAxuRJV1McfmA6n-d-7">
          <mxCell style="text;whiteSpace=wrap;html=1;" vertex="1" parent="1">
            <mxGeometry x="1220" y="30" width="560" height="470" as="geometry" />
          </mxCell>
        </UserObject>
        <mxCell id="coWFAxuRJV1McfmA6n-d-8" value="Be available through the web browser." style="ellipse;whiteSpace=wrap;html=1;" vertex="1" parent="1">
          <mxGeometry x="480" y="140" width="120" height="80" as="geometry" />
        </mxCell>
        <mxCell id="coWFAxuRJV1McfmA6n-d-9" value="Have three types of users: students, instuctors, sysAdmins." style="ellipse;whiteSpace=wrap;html=1;" vertex="1" parent="1">
          <mxGeometry x="480" y="260" width="120" height="80" as="geometry" />
        </mxCell>
        <mxCell id="coWFAxuRJV1McfmA6n-d-10" value="&lt;div&gt;Support three types of questions:&lt;/div&gt;&lt;div&gt;What is the gender of a Welsh noun?&lt;/div&gt;&lt;div&gt;What is the meaning of a Welsh noun?&lt;/div&gt;&lt;div&gt;What is the the Welsh noun for an English noun?&lt;br&gt;&lt;/div&gt;" style="ellipse;whiteSpace=wrap;html=1;" vertex="1" parent="1">
          <mxGeometry x="480" y="370" width="180" height="170" as="geometry" />
        </mxCell>
        <mxCell id="coWFAxuRJV1McfmA6n-d-11" value="Generate tests on demand with random questions and nouns." style="ellipse;whiteSpace=wrap;html=1;" vertex="1" parent="1">
          <mxGeometry x="480" y="590" width="120" height="80" as="geometry" />
        </mxCell>
        <mxCell id="coWFAxuRJV1McfmA6n-d-12" value="Generate tests with 20 questions" style="ellipse;whiteSpace=wrap;html=1;" vertex="1" parent="1">
          <mxGeometry x="640" y="590" width="120" height="80" as="geometry" />
        </mxCell>
        <mxCell id="coWFAxuRJV1McfmA6n-d-13" value="Store the results of any tests." style="ellipse;whiteSpace=wrap;html=1;" vertex="1" parent="1">
          <mxGeometry x="470" y="710" width="120" height="80" as="geometry" />
        </mxCell>
        <mxCell id="coWFAxuRJV1McfmA6n-d-14" value="Have a welcome page" style="ellipse;whiteSpace=wrap;html=1;" vertex="1" parent="1">
          <mxGeometry x="640" y="710" width="120" height="80" as="geometry" />
        </mxCell>
        <mxCell id="coWFAxuRJV1McfmA6n-d-15" value="Have a security system" style="ellipse;whiteSpace=wrap;html=1;" vertex="1" parent="1">
          <mxGeometry x="800" y="710" width="120" height="80" as="geometry" />
        </mxCell>
        <mxCell id="coWFAxuRJV1McfmA6n-d-16" value="Minimise opportunity for cheating by denying multiple tests" style="ellipse;whiteSpace=wrap;html=1;" vertex="1" parent="1">
          <mxGeometry x="950" y="710" width="120" height="80" as="geometry" />
        </mxCell>
        <mxCell id="coWFAxuRJV1McfmA6n-d-29" value="Register a new user" style="ellipse;whiteSpace=wrap;html=1;" vertex="1" parent="1">
          <mxGeometry x="210" y="50" width="120" height="80" as="geometry" />
        </mxCell>
        <mxCell id="coWFAxuRJV1McfmA6n-d-30" value="Set user type" style="ellipse;whiteSpace=wrap;html=1;" vertex="1" parent="1">
          <mxGeometry x="210" y="150" width="120" height="80" as="geometry" />
        </mxCell>
        <mxCell id="coWFAxuRJV1McfmA6n-d-31" value="Delete user" style="ellipse;whiteSpace=wrap;html=1;" vertex="1" parent="1">
          <mxGeometry x="210" y="250" width="120" height="80" as="geometry" />
        </mxCell>
        <mxCell id="coWFAxuRJV1McfmA6n-d-32" value="Reset user password" style="ellipse;whiteSpace=wrap;html=1;" vertex="1" parent="1">
          <mxGeometry x="240" y="390" width="120" height="80" as="geometry" />
        </mxCell>
        <mxCell id="coWFAxuRJV1McfmA6n-d-37" value="Create new nouns" style="ellipse;whiteSpace=wrap;html=1;" vertex="1" parent="1">
          <mxGeometry x="210" y="570" width="120" height="80" as="geometry" />
        </mxCell>
        <mxCell id="coWFAxuRJV1McfmA6n-d-38" value="Edit nouns" style="ellipse;whiteSpace=wrap;html=1;" vertex="1" parent="1">
          <mxGeometry x="210" y="660" width="120" height="80" as="geometry" />
        </mxCell>
        <mxCell id="coWFAxuRJV1McfmA6n-d-39" value="Delete nouns" style="ellipse;whiteSpace=wrap;html=1;" vertex="1" parent="1">
          <mxGeometry x="210" y="750" width="120" height="80" as="geometry" />
        </mxCell>
        <mxCell id="coWFAxuRJV1McfmA6n-d-40" value="Take a test" style="ellipse;whiteSpace=wrap;html=1;" vertex="1" parent="1">
          <mxGeometry x="220" y="870" width="120" height="80" as="geometry" />
        </mxCell>
        <mxCell id="coWFAxuRJV1McfmA6n-d-44" value="Not edit answers after submitting" style="ellipse;whiteSpace=wrap;html=1;" vertex="1" parent="1">
          <mxGeometry x="220" y="960" width="120" height="80" as="geometry" />
        </mxCell>
        <mxCell id="coWFAxuRJV1McfmA6n-d-45" value="View results for a test" style="ellipse;whiteSpace=wrap;html=1;" vertex="1" parent="1">
          <mxGeometry x="220" y="1050" width="120" height="80" as="geometry" />
        </mxCell>
        <mxCell id="coWFAxuRJV1McfmA6n-d-46" value="View all test results" style="ellipse;whiteSpace=wrap;html=1;" vertex="1" parent="1">
          <mxGeometry x="220" y="1160" width="120" height="80" as="geometry" />
        </mxCell>
      </root>
    </mxGraphModel>
  </diagram>
</mxfile>
